<svg height='300px' width='300px'  fill="#000000" xmlns="http://www.w3.org/2000/svg" data-name="Layer 1" viewBox="0 0 80 80" x="0px" y="0px"><title>Artboard 36</title><path d="M67,52H46a2,2,0,0,0,0,4H67a2.0027,2.0027,0,0,1,2,2v8a2.0027,2.0027,0,0,1-2,2H13a2.0027,2.0027,0,0,1-2-2V58a2.0027,2.0027,0,0,1,2-2H34a2,2,0,0,0,0-4H13a6.0066,6.0066,0,0,0-6,6v8a6.0066,6.0066,0,0,0,6,6H67a6.0066,6.0066,0,0,0,6-6V58A6.0066,6.0066,0,0,0,67,52Z"></path><circle cx="63" cy="62" r="2"></circle><circle cx="57" cy="62" r="2"></circle><circle cx="51" cy="62" r="2"></circle><path d="M17,48H34a2,2,0,0,0,0-4H17a2.0027,2.0027,0,0,1-2-2V22H65V42a2.0027,2.0027,0,0,1-2,2H46a2,2,0,0,0,0,4H63a6.0066,6.0066,0,0,0,6-6V14a6.0066,6.0066,0,0,0-6-6H17a6.0066,6.0066,0,0,0-6,6V42A6.0066,6.0066,0,0,0,17,48Zm0-36H63a2.0027,2.0027,0,0,1,2,2v4H15V14A2.0027,2.0027,0,0,1,17,12Z"></path><circle cx="19" cy="15" r="2"></circle><circle cx="25" cy="15" r="2"></circle><circle cx="31" cy="15" r="2"></circle><path d="M42.5859,41.4141a2,2,0,0,0,2.8282-2.8282l-4-4a2,2,0,0,0-2.8282,0l-4,4a2,2,0,0,0,2.8282,2.8282L38,40.8281V59.1719l-.5859-.586a2,2,0,0,0-2.8282,2.8282l4,4a1.9995,1.9995,0,0,0,2.8282,0l4-4a2,2,0,0,0-2.8282-2.8282L42,59.1719V40.8281Z"></path></svg>